# xmcd
#
# Track frame offsets:
#	210
#	13481
#	27636
#	41680
#	55253
#	69240
#	82291
#	95303
#	108460
#	121742
#	135373
#	149421
#	165199
#	181452
#	194864
#	210315
#	223505
#	236270
#	250464
#	264237
#	278411
#	291500
#	304633
#	318026
#
# Disc length: 4416 seconds
#
# Revision: 1
# Processed by: cddbd v1.4PL0 Copyright (c) Steve Scherf et al.
# Submitted via: EasyCDDAExtractor 5.0.6
#
DISCID=5c113e18
DTITLE=Walter Smith and Friends - Volume 1 (1929 - March 1930): The Bald-Headed 
DTITLE=End of a Broom
DYEAR=2002
DGENRE=country
TTITLE0=I'll Remember You Love in My Prayers
TTITLE1=I Ain't Gonna Grieve My Lord Anymore
TTITLE2=It Won't Be Long Till My Grave Is Made
TTITLE3=The Old Schoolhouse Playground
TTITLE4=I'd Rather Be With Rosy Nell
TTITLE5=The Bald-headed End Of A Broom
TTITLE6=It's Sad To Leave You Sweetheart
TTITLE7=Old Johnny Bucker Wouldn't Do
TTITLE8=The Cat's Got The Measles And The Dog's Got Whoopin' Cough
TTITLE9=I Fell In Love With A Married Man
TTITLE10=Brace Up And Be A Man She Said
TTITLE11=The Murder Of The Lawson Family
TTITLE12=In A Cottage By The Sea
TTITLE13=The Story That The Crow Told Me
TTITLE14=My Sweetheart Is A Sly Miss
TTITLE15=Green Mountain Polka
TTITLE16=Long Eared Mule
TTITLE17=Please Daddy Come Home
TTITLE18=My Happy Home I Left In Caroline
TTITLE19=My Father Doesn't Love Me
TTITLE20=Sandy River Bells
TTITLE21=I Know I'll Meet My Mother After All
TTITLE22=Mother Kiss Your Darling
TTITLE23=Aggravating Mother-in-Law
EXTD=
EXTT0=
EXTT1=
EXTT2=
EXTT3=
EXTT4=
EXTT5=
EXTT6=
EXTT7=
EXTT8=
EXTT9=
EXTT10=
EXTT11=
EXTT12=
EXTT13=
EXTT14=
EXTT15=
EXTT16=
EXTT17=
EXTT18=
EXTT19=
EXTT20=
EXTT21=
EXTT22=
EXTT23=
PLAYORDER=
